<svg width="411" height="73" viewBox="0 0 411 73" fill="none" xmlns="http://www.w3.org/2000/svg">
<path d="M24.36 7.48C19.24 7.48 15.3733 8.65333 12.76 11C10.2 13.2933 8.92 16.6533 8.92 21.08V27.48H34.52V34.36H8.92V57H0.920001V21C0.920001 14.5467 2.94667 9.50666 7 5.88C11.1067 2.2 16.8133 0.36 24.12 0.36C27.32 0.36 30.3067 0.733333 33.08 1.48C35.8533 2.17333 38.2533 3.21333 40.28 4.6L37.64 11.24C34.0667 8.73333 29.64 7.48 24.36 7.48ZM56.1931 21.72C57.5265 19.2667 59.4998 17.4 62.1131 16.12C64.7265 14.84 67.8998 14.2 71.6331 14.2V21.64C71.2065 21.5867 70.6198 21.56 69.8731 21.56C65.7131 21.56 62.4331 22.8133 60.0331 25.32C57.6865 27.7733 56.5131 31.2933 56.5131 35.88V57H48.8331V14.6H56.1931V21.72ZM122.308 14.6V57H114.948V50.28C113.241 52.6267 111.081 54.4133 108.468 55.64C105.855 56.8667 102.975 57.48 99.8281 57.48C95.7215 57.48 92.0415 56.5733 88.7881 54.76C85.5348 52.9467 82.9748 50.4133 81.1081 47.16C79.2948 43.8533 78.3881 40.0667 78.3881 35.8C78.3881 31.5333 79.2948 27.7733 81.1081 24.52C82.9748 21.2667 85.5348 18.7333 88.7881 16.92C92.0415 15.1067 95.7215 14.2 99.8281 14.2C102.868 14.2 105.668 14.7867 108.228 15.96C110.788 17.08 112.921 18.76 114.628 21V14.6H122.308ZM100.468 50.76C103.135 50.76 105.561 50.1467 107.748 48.92C109.935 47.64 111.641 45.88 112.868 43.64C114.095 41.3467 114.708 38.7333 114.708 35.8C114.708 32.8667 114.095 30.28 112.868 28.04C111.641 25.7467 109.935 23.9867 107.748 22.76C105.561 21.5333 103.135 20.92 100.468 20.92C97.7481 20.92 95.2948 21.5333 93.1081 22.76C90.9748 23.9867 89.2681 25.7467 87.9881 28.04C86.7615 30.28 86.1481 32.8667 86.1481 35.8C86.1481 38.7333 86.7615 41.3467 87.9881 43.64C89.2681 45.88 90.9748 47.64 93.1081 48.92C95.2948 50.1467 97.7481 50.76 100.468 50.76ZM178.999 14.6V51.24C178.999 58.6533 177.159 64.12 173.479 67.64C169.799 71.2133 164.306 73 156.999 73C152.999 73 149.186 72.44 145.559 71.32C141.933 70.2533 138.999 68.7067 136.759 66.68L140.439 60.76C142.413 62.4667 144.839 63.8 147.719 64.76C150.653 65.7733 153.666 66.28 156.759 66.28C161.719 66.28 165.373 65.1067 167.719 62.76C170.119 60.4133 171.319 56.84 171.319 52.04V48.68C169.506 50.8667 167.266 52.52 164.599 53.64C161.986 54.7067 159.133 55.24 156.039 55.24C151.986 55.24 148.306 54.3867 144.999 52.68C141.746 50.92 139.186 48.4933 137.319 45.4C135.453 42.2533 134.519 38.68 134.519 34.68C134.519 30.68 135.453 27.1333 137.319 24.04C139.186 20.8933 141.746 18.4667 144.999 16.76C148.306 15.0533 151.986 14.2 156.039 14.2C159.239 14.2 162.199 14.7867 164.919 15.96C167.693 17.1333 169.959 18.8667 171.719 21.16V14.6H178.999ZM156.919 48.52C159.693 48.52 162.173 47.9333 164.359 46.76C166.599 45.5867 168.333 43.96 169.559 41.88C170.839 39.7467 171.479 37.3467 171.479 34.68C171.479 30.5733 170.119 27.2667 167.399 24.76C164.679 22.2 161.186 20.92 156.919 20.92C152.599 20.92 149.079 22.2 146.359 24.76C143.639 27.2667 142.279 30.5733 142.279 34.68C142.279 37.3467 142.893 39.7467 144.119 41.88C145.399 43.96 147.133 45.5867 149.319 46.76C151.559 47.9333 154.093 48.52 156.919 48.52ZM248.314 14.2C253.647 14.2 257.86 15.7467 260.954 18.84C264.1 21.9333 265.674 26.52 265.674 32.6V57H257.994V33.48C257.994 29.3733 257.034 26.28 255.114 24.2C253.247 22.12 250.554 21.08 247.034 21.08C243.14 21.08 240.047 22.3067 237.754 24.76C235.46 27.16 234.314 30.6267 234.314 35.16V57H226.634V33.48C226.634 29.3733 225.674 26.28 223.754 24.2C221.887 22.12 219.194 21.08 215.674 21.08C211.78 21.08 208.687 22.3067 206.394 24.76C204.1 27.16 202.954 30.6267 202.954 35.16V57H195.274V14.6H202.634V20.92C204.18 18.7333 206.207 17.08 208.714 15.96C211.22 14.7867 214.074 14.2 217.274 14.2C220.58 14.2 223.514 14.8667 226.074 16.2C228.634 17.5333 230.607 19.48 231.994 22.04C233.594 19.5867 235.807 17.6667 238.634 16.28C241.514 14.8933 244.74 14.2 248.314 14.2ZM300.759 50.76C305.826 50.76 309.906 49.0533 312.999 45.64L317.159 50.6C315.293 52.84 312.919 54.5467 310.039 55.72C307.213 56.8933 304.039 57.48 300.519 57.48C296.039 57.48 292.066 56.5733 288.599 54.76C285.133 52.8933 282.439 50.3067 280.519 47C278.653 43.6933 277.719 39.96 277.719 35.8C277.719 31.6933 278.626 27.9867 280.439 24.68C282.306 21.3733 284.839 18.8133 288.039 17C291.293 15.1333 294.946 14.2 298.999 14.2C302.839 14.2 306.333 15.08 309.479 16.84C312.626 18.5467 315.133 20.9733 316.999 24.12C318.866 27.2667 319.826 30.8933 319.879 35L286.199 41.56C287.266 44.4933 289.053 46.76 291.559 48.36C294.119 49.96 297.186 50.76 300.759 50.76ZM298.999 20.68C296.333 20.68 293.933 21.2933 291.799 22.52C289.719 23.7467 288.093 25.48 286.919 27.72C285.746 29.9067 285.159 32.4667 285.159 35.4V36.2L312.279 31.08C311.586 27.9867 310.039 25.48 307.639 23.56C305.239 21.64 302.359 20.68 298.999 20.68ZM354.864 14.2C360.25 14.2 364.517 15.7733 367.664 18.92C370.864 22.0133 372.464 26.5733 372.464 32.6V57H364.784V33.48C364.784 29.3733 363.797 26.28 361.824 24.2C359.85 22.12 357.024 21.08 353.344 21.08C349.184 21.08 345.904 22.3067 343.504 24.76C341.104 27.16 339.904 30.6267 339.904 35.16V57H332.224V14.6H339.584V21C341.13 18.8133 343.21 17.1333 345.824 15.96C348.49 14.7867 351.504 14.2 354.864 14.2ZM410.597 54.52C409.477 55.48 408.09 56.2267 406.437 56.76C404.784 57.24 403.077 57.48 401.317 57.48C397.05 57.48 393.744 56.3333 391.397 54.04C389.05 51.7467 387.877 48.4667 387.877 44.2V5.32H395.557V14.6H407.717V20.92H395.557V43.88C395.557 46.1733 396.117 47.9333 397.237 49.16C398.41 50.3867 400.064 51 402.197 51C404.544 51 406.544 50.3333 408.197 49L410.597 54.52Z" fill="white"/>
</svg>
